<svg xmlns="http://www.w3.org/2000/svg" xmlns:xlink="http://www.w3.org/1999/xlink" width="1080" zoomAndPan="magnify" viewBox="0 0 810 809.999993" height="1080" preserveAspectRatio="xMidYMid meet" version="1.0"><defs><g/><clipPath id="8f55b9ae70"><path d="M 150 141.664062 L 727 141.664062 L 727 382.414062 L 150 382.414062 Z M 150 141.664062 " clip-rule="nonzero"/></clipPath><clipPath id="12b8247662"><path d="M 305.09375 105.128906 L 530 105.128906 L 530 239.378906 L 305.09375 239.378906 Z M 305.09375 105.128906 " clip-rule="nonzero"/></clipPath><clipPath id="cbe78eee7c"><path d="M 446 593 L 486 593 L 486 636 L 446 636 Z M 446 593 " clip-rule="nonzero"/></clipPath><clipPath id="43199c6cbe"><path d="M 440.847656 595.488281 L 635.007812 528.167969 L 672.109375 635.171875 L 477.945312 702.488281 Z M 440.847656 595.488281 " clip-rule="nonzero"/></clipPath><clipPath id="76f7af3896"><path d="M 634.953125 528.1875 L 440.792969 595.507812 L 477.890625 702.507812 L 672.050781 635.191406 Z M 634.953125 528.1875 " clip-rule="nonzero"/></clipPath><clipPath id="92e7ecfe25"><path d="M 458 609 L 470 609 L 470 622 L 458 622 Z M 458 609 " clip-rule="nonzero"/></clipPath><clipPath id="e08af41f35"><path d="M 440.847656 595.488281 L 635.007812 528.167969 L 672.109375 635.171875 L 477.945312 702.488281 Z M 440.847656 595.488281 " clip-rule="nonzero"/></clipPath><clipPath id="e072008164"><path d="M 634.953125 528.1875 L 440.792969 595.507812 L 477.890625 702.507812 L 672.050781 635.191406 Z M 634.953125 528.1875 " clip-rule="nonzero"/></clipPath><clipPath id="b6b6d6f434"><path d="M 473 626 L 486 626 L 486 638 L 473 638 Z M 473 626 " clip-rule="nonzero"/></clipPath><clipPath id="219d3018e8"><path d="M 440.847656 595.488281 L 635.007812 528.167969 L 672.109375 635.171875 L 477.945312 702.488281 Z M 440.847656 595.488281 " clip-rule="nonzero"/></clipPath><clipPath id="532146b36e"><path d="M 634.953125 528.1875 L 440.792969 595.507812 L 477.890625 702.507812 L 672.050781 635.191406 Z M 634.953125 528.1875 " clip-rule="nonzero"/></clipPath><clipPath id="55677adb9b"><path d="M 490 640 L 504 640 L 504 652 L 490 652 Z M 490 640 " clip-rule="nonzero"/></clipPath><clipPath id="5932e3d10b"><path d="M 440.847656 595.488281 L 635.007812 528.167969 L 672.109375 635.171875 L 477.945312 702.488281 Z M 440.847656 595.488281 " clip-rule="nonzero"/></clipPath><clipPath id="b31527ada1"><path d="M 634.953125 528.1875 L 440.792969 595.507812 L 477.890625 702.507812 L 672.050781 635.191406 Z M 634.953125 528.1875 " clip-rule="nonzero"/></clipPath><clipPath id="e395253eec"><path d="M 509 652 L 524 652 L 524 663 L 509 663 Z M 509 652 " clip-rule="nonzero"/></clipPath><clipPath id="2a6654b83e"><path d="M 440.847656 595.488281 L 635.007812 528.167969 L 672.109375 635.171875 L 477.945312 702.488281 Z M 440.847656 595.488281 " clip-rule="nonzero"/></clipPath><clipPath id="00ffcfd132"><path d="M 634.953125 528.1875 L 440.792969 595.507812 L 477.890625 702.507812 L 672.050781 635.191406 Z M 634.953125 528.1875 " clip-rule="nonzero"/></clipPath><clipPath id="0f7e845536"><path d="M 651 606 L 663 606 L 663 620 L 651 620 Z M 651 606 " clip-rule="nonzero"/></clipPath><clipPath id="bfbc9b5ec8"><path d="M 440.847656 595.488281 L 635.007812 528.167969 L 672.109375 635.171875 L 477.945312 702.488281 Z M 440.847656 595.488281 " clip-rule="nonzero"/></clipPath><clipPath id="3e289d64a5"><path d="M 634.953125 528.1875 L 440.792969 595.507812 L 477.890625 702.507812 L 672.050781 635.191406 Z M 634.953125 528.1875 " clip-rule="nonzero"/></clipPath><clipPath id="5acf1d1613"><path d="M 531 660 L 546 660 L 546 668 L 531 668 Z M 531 660 " clip-rule="nonzero"/></clipPath><clipPath id="72dc7323bc"><path d="M 440.847656 595.488281 L 635.007812 528.167969 L 672.109375 635.171875 L 477.945312 702.488281 Z M 440.847656 595.488281 " clip-rule="nonzero"/></clipPath><clipPath id="9497e04e0a"><path d="M 634.953125 528.1875 L 440.792969 595.507812 L 477.890625 702.507812 L 672.050781 635.191406 Z M 634.953125 528.1875 " clip-rule="nonzero"/></clipPath><clipPath id="dc73b93d3b"><path d="M 636 624 L 649 624 L 649 637 L 636 637 Z M 636 624 " clip-rule="nonzero"/></clipPath><clipPath id="eb3c7a8590"><path d="M 440.847656 595.488281 L 635.007812 528.167969 L 672.109375 635.171875 L 477.945312 702.488281 Z M 440.847656 595.488281 " clip-rule="nonzero"/></clipPath><clipPath id="ca6523f222"><path d="M 634.953125 528.1875 L 440.792969 595.507812 L 477.890625 702.507812 L 672.050781 635.191406 Z M 634.953125 528.1875 " clip-rule="nonzero"/></clipPath><clipPath id="16752486b5"><path d="M 553 662 L 569 662 L 569 669 L 553 669 Z M 553 662 " clip-rule="nonzero"/></clipPath><clipPath id="c5b7750f04"><path d="M 440.847656 595.488281 L 635.007812 528.167969 L 672.109375 635.171875 L 477.945312 702.488281 Z M 440.847656 595.488281 " clip-rule="nonzero"/></clipPath><clipPath id="f905e56370"><path d="M 634.953125 528.1875 L 440.792969 595.507812 L 477.890625 702.507812 L 672.050781 635.191406 Z M 634.953125 528.1875 " clip-rule="nonzero"/></clipPath><clipPath id="351d6bb237"><path d="M 618 639 L 632 639 L 632 651 L 618 651 Z M 618 639 " clip-rule="nonzero"/></clipPath><clipPath id="05b5f64dd9"><path d="M 440.847656 595.488281 L 635.007812 528.167969 L 672.109375 635.171875 L 477.945312 702.488281 Z M 440.847656 595.488281 " clip-rule="nonzero"/></clipPath><clipPath id="f14ff55058"><path d="M 634.953125 528.1875 L 440.792969 595.507812 L 477.890625 702.507812 L 672.050781 635.191406 Z M 634.953125 528.1875 " clip-rule="nonzero"/></clipPath><clipPath id="f313bf910b"><path d="M 576 657 L 591 657 L 591 666 L 576 666 Z M 576 657 " clip-rule="nonzero"/></clipPath><clipPath id="c04a9939d1"><path d="M 440.847656 595.488281 L 635.007812 528.167969 L 672.109375 635.171875 L 477.945312 702.488281 Z M 440.847656 595.488281 " clip-rule="nonzero"/></clipPath><clipPath id="41650967aa"><path d="M 634.953125 528.1875 L 440.792969 595.507812 L 477.890625 702.507812 L 672.050781 635.191406 Z M 634.953125 528.1875 " clip-rule="nonzero"/></clipPath><clipPath id="1336169220"><path d="M 598 650 L 613 650 L 613 660 L 598 660 Z M 598 650 " clip-rule="nonzero"/></clipPath><clipPath id="679c3672d8"><path d="M 440.847656 595.488281 L 635.007812 528.167969 L 672.109375 635.171875 L 477.945312 702.488281 Z M 440.847656 595.488281 " clip-rule="nonzero"/></clipPath><clipPath id="88828a92e8"><path d="M 634.953125 528.1875 L 440.792969 595.507812 L 477.890625 702.507812 L 672.050781 635.191406 Z M 634.953125 528.1875 " clip-rule="nonzero"/></clipPath><clipPath id="73266e96fc"><path d="M 170 583.667969 L 409.886719 583.667969 L 409.886719 683.417969 L 170 683.417969 Z M 170 583.667969 " clip-rule="nonzero"/></clipPath><clipPath id="386eb3be77"><path d="M 264.136719 649.90625 L 336.136719 649.90625 L 336.136719 692.65625 L 264.136719 692.65625 Z M 264.136719 649.90625 " clip-rule="nonzero"/></clipPath><clipPath id="b2e1b5aa01"><path d="M 277.117188 661.972656 L 349.117188 661.972656 L 349.117188 704.722656 L 277.117188 704.722656 Z M 277.117188 661.972656 " clip-rule="nonzero"/></clipPath></defs><g clip-path="url(#8f55b9ae70)"><path fill="#ffffff" d="M 665.722656 382.542969 L 569.652344 323.5 C 563.417969 319.675781 561.472656 311.523438 565.308594 305.289062 C 569.132812 299.070312 577.289062 297.109375 583.507812 300.949219 L 646.453125 339.632812 C 615.101562 241.628906 515.492188 168.265625 412.496094 168.132812 L 412.21875 168.132812 C 307.570312 168.132812 206.292969 243.71875 176.554688 344.054688 C 174.476562 351.054688 167.105469 355.054688 160.105469 352.988281 C 153.101562 350.910156 149.09375 343.550781 151.167969 336.535156 C 167.210938 282.417969 202.496094 232.894531 250.511719 197.09375 C 298.464844 161.34375 355.878906 141.664062 412.21875 141.664062 L 412.523438 141.664062 C 468.972656 141.730469 526.453125 161.554688 574.390625 197.488281 C 618.871094 230.828125 652.355469 275.972656 669.65625 325.578125 L 702.199219 272.613281 C 706.023438 266.378906 714.179688 264.433594 720.398438 268.269531 C 726.632812 272.09375 728.578125 280.25 724.738281 286.480469 L 665.699219 382.554688 Z M 665.722656 382.542969 " fill-opacity="1" fill-rule="nonzero"/></g><g clip-path="url(#12b8247662)"><path fill="#66cc99" d="M 323.550781 105.121094 L 511.4375 105.121094 C 521.59375 105.121094 529.859375 113.375 529.859375 123.527344 L 529.859375 220.769531 C 529.859375 230.925781 521.59375 239.179688 511.4375 239.179688 L 323.550781 239.179688 C 313.394531 239.179688 305.140625 230.925781 305.140625 220.769531 L 305.140625 123.527344 C 305.140625 113.375 313.394531 105.121094 323.550781 105.121094 Z M 323.550781 105.121094 " fill-opacity="1" fill-rule="evenodd"/></g><path fill="#339966" d="M 323.550781 117.867188 L 511.4375 117.867188 C 514.570312 117.867188 517.121094 120.410156 517.121094 123.527344 L 517.121094 220.769531 C 517.121094 223.890625 514.570312 226.441406 511.4375 226.441406 L 323.550781 226.441406 C 320.429688 226.441406 317.882812 223.890625 317.882812 220.769531 L 317.882812 123.527344 C 317.882812 120.410156 320.429688 117.867188 323.550781 117.867188 Z M 323.550781 117.867188 " fill-opacity="1" fill-rule="evenodd"/><path fill="#339966" d="M 489.257812 179.988281 C 493.574219 179.988281 497.105469 176.472656 497.105469 172.148438 C 497.105469 167.828125 493.574219 164.308594 489.257812 164.308594 C 484.933594 164.308594 481.417969 167.828125 481.417969 172.148438 C 481.417969 176.472656 484.933594 179.988281 489.257812 179.988281 Z M 489.257812 179.988281 " fill-opacity="1" fill-rule="evenodd"/><path fill="#339966" d="M 323.550781 117.867188 L 348.402344 117.867188 C 349.027344 120.023438 349.359375 122.300781 349.359375 124.640625 C 349.359375 138.226562 338.246094 149.34375 324.664062 149.34375 C 322.304688 149.34375 320.03125 149.007812 317.882812 148.382812 L 317.882812 123.527344 C 317.882812 120.410156 320.429688 117.867188 323.550781 117.867188 Z M 323.550781 117.867188 " fill-opacity="1" fill-rule="evenodd"/><path fill="#339966" d="M 511.4375 117.867188 L 486.585938 117.867188 C 485.972656 120.023438 485.644531 122.300781 485.644531 124.640625 C 485.644531 138.226562 496.753906 149.34375 510.324219 149.34375 C 512.679688 149.34375 514.957031 149.007812 517.121094 148.382812 L 517.121094 123.527344 C 517.121094 120.410156 514.570312 117.867188 511.4375 117.867188 Z M 511.4375 117.867188 " fill-opacity="1" fill-rule="evenodd"/><path fill="#339966" d="M 323.550781 226.433594 L 348.402344 226.433594 C 349.027344 224.289062 349.359375 222.007812 349.359375 219.65625 C 349.359375 206.074219 338.246094 194.957031 324.664062 194.957031 C 322.304688 194.957031 320.03125 195.292969 317.882812 195.917969 L 317.882812 220.769531 C 317.882812 223.890625 320.429688 226.433594 323.550781 226.433594 Z M 323.550781 226.433594 " fill-opacity="1" fill-rule="evenodd"/><path fill="#339966" d="M 511.4375 226.433594 L 486.585938 226.433594 C 485.972656 224.289062 485.644531 222.007812 485.644531 219.65625 C 485.644531 206.074219 496.753906 194.957031 510.324219 194.957031 C 512.679688 194.957031 514.957031 195.292969 517.121094 195.917969 L 517.121094 220.769531 C 517.121094 223.890625 514.570312 226.433594 511.4375 226.433594 Z M 511.4375 226.433594 " fill-opacity="1" fill-rule="evenodd"/><path fill="#66cc99" d="M 417.5 131.691406 C 439.847656 131.691406 457.957031 149.804688 457.957031 172.148438 C 457.957031 194.496094 439.847656 212.609375 417.5 212.609375 C 395.15625 212.609375 377.042969 194.496094 377.042969 172.148438 C 377.042969 149.804688 395.15625 131.691406 417.5 131.691406 Z M 417.5 131.691406 " fill-opacity="1" fill-rule="evenodd"/><path fill="#339966" d="M 345.746094 179.988281 C 350.050781 179.988281 353.585938 176.472656 353.585938 172.148438 C 353.585938 167.828125 350.050781 164.308594 345.746094 164.308594 C 341.414062 164.308594 337.898438 167.828125 337.898438 172.148438 C 337.898438 176.472656 341.414062 179.988281 345.746094 179.988281 Z M 345.746094 179.988281 " fill-opacity="1" fill-rule="evenodd"/><path fill="#339966" d="M 437.570312 190.367188 C 437.570312 197.285156 431.9375 202.914062 425.011719 202.914062 C 418.089844 202.914062 412.457031 197.285156 412.457031 190.367188 L 412.457031 171.550781 L 408.148438 171.550781 C 406.402344 171.550781 404.988281 170.136719 404.988281 168.390625 C 404.988281 166.644531 406.402344 165.230469 408.148438 165.230469 L 412.457031 165.230469 L 412.457031 152.050781 C 412.457031 149.652344 410.507812 147.707031 408.101562 147.707031 C 405.695312 147.707031 403.738281 149.652344 403.738281 152.050781 C 403.738281 153.796875 402.320312 155.210938 400.578125 155.210938 C 398.832031 155.210938 397.417969 153.796875 397.417969 152.050781 C 397.417969 146.167969 402.210938 141.386719 408.101562 141.386719 C 413.988281 141.386719 418.777344 146.167969 418.777344 152.050781 L 418.777344 165.230469 L 428.996094 165.230469 C 430.742188 165.230469 432.15625 166.644531 432.15625 168.390625 C 432.15625 170.136719 430.742188 171.550781 428.996094 171.550781 L 418.777344 171.550781 L 418.777344 190.367188 C 418.777344 193.800781 421.574219 196.589844 425.011719 196.589844 C 428.453125 196.589844 431.25 193.800781 431.25 190.367188 C 431.25 187.980469 429.847656 185.761719 427.671875 184.71875 C 426.097656 183.960938 425.4375 182.078125 426.1875 180.503906 C 426.941406 178.933594 428.832031 178.265625 430.40625 179.019531 C 434.761719 181.109375 437.570312 185.5625 437.570312 190.367188 Z M 437.570312 190.367188 " fill-opacity="1" fill-rule="nonzero"/><g clip-path="url(#cbe78eee7c)"><g clip-path="url(#43199c6cbe)"><g clip-path="url(#76f7af3896)"><path fill="#ffffff" d="M 447.054688 593.402344 C 447.390625 593.363281 447.742188 593.441406 448.105469 593.621094 C 448.308594 593.726562 448.652344 593.898438 448.863281 594.007812 C 449.078125 594.117188 449.542969 594.332031 449.886719 594.488281 C 450.246094 594.648438 450.671875 594.847656 450.855469 594.945312 C 451.03125 595.042969 451.378906 595.203125 451.628906 595.300781 C 451.871094 595.398438 452.179688 595.535156 452.300781 595.601562 C 452.71875 595.824219 454.136719 596.515625 454.425781 596.632812 C 454.585938 596.691406 454.910156 596.847656 455.140625 596.96875 C 455.671875 597.242188 456.265625 597.488281 456.34375 597.457031 C 456.382812 597.445312 456.476562 597.496094 456.550781 597.570312 C 456.6875 597.699219 457.167969 597.972656 457.460938 598.097656 C 458.113281 598.371094 459.050781 598.839844 459.125 598.9375 C 459.179688 598.992188 459.289062 599.046875 459.367188 599.054688 C 459.449219 599.050781 459.691406 599.132812 459.914062 599.238281 C 460.835938 599.660156 461.328125 599.898438 461.722656 600.105469 C 461.957031 600.222656 462.421875 600.4375 462.75 600.574219 C 463.074219 600.710938 463.429688 600.894531 463.535156 600.984375 C 463.640625 601.074219 463.804688 601.132812 463.894531 601.125 C 463.992188 601.117188 464.1875 601.199219 464.335938 601.316406 C 464.480469 601.421875 464.632812 601.503906 464.679688 601.488281 C 464.773438 601.457031 465.257812 601.722656 465.550781 601.960938 C 465.65625 602.050781 465.8125 602.121094 465.894531 602.117188 C 465.984375 602.109375 466.585938 602.371094 467.234375 602.679688 C 467.875 602.988281 468.480469 603.269531 468.585938 603.308594 C 468.683594 603.351562 469.066406 603.542969 469.429688 603.742188 C 469.792969 603.949219 470.15625 604.109375 470.230469 604.105469 C 470.3125 604.105469 470.511719 604.199219 470.671875 604.328125 C 470.832031 604.457031 471.023438 604.542969 471.082031 604.519531 C 471.148438 604.496094 471.355469 604.59375 471.546875 604.734375 C 471.746094 604.875 471.921875 604.980469 471.960938 604.964844 C 472.003906 604.949219 472.941406 605.34375 473.230469 605.5 C 473.625 605.722656 474.808594 606.277344 475.285156 606.472656 C 475.613281 606.609375 475.996094 606.800781 476.136719 606.910156 C 476.28125 607.011719 476.421875 607.085938 476.46875 607.070312 C 476.503906 607.058594 476.75 607.164062 477.011719 607.316406 C 477.269531 607.460938 477.695312 607.679688 477.953125 607.796875 C 478.21875 607.914062 478.605469 608.097656 478.8125 608.191406 C 479.03125 608.289062 479.230469 608.363281 479.269531 608.351562 C 479.308594 608.335938 479.507812 608.460938 479.71875 608.609375 C 479.933594 608.769531 480.15625 608.890625 480.226562 608.894531 C 480.351562 608.894531 480.527344 608.972656 482.058594 609.734375 C 482.421875 609.917969 482.746094 610.0625 482.78125 610.058594 C 482.902344 610.03125 483.054688 610.105469 483.441406 610.378906 C 483.671875 610.542969 483.882812 610.667969 483.914062 610.660156 C 484.003906 610.628906 484.597656 610.878906 485.277344 611.226562 C 485.734375 611.46875 486.058594 611.847656 485.945312 612.027344 C 485.789062 612.292969 484.753906 612.390625 484.210938 612.1875 C 484.136719 612.164062 484.058594 612.160156 484.035156 612.167969 C 483.988281 612.199219 483.722656 612.183594 483.515625 612.136719 C 483.445312 612.121094 483.261719 612.101562 483.125 612.089844 C 482.980469 612.082031 482.785156 612.042969 482.679688 612.003906 C 482.574219 611.964844 482.351562 611.925781 482.191406 611.921875 C 482.03125 611.917969 481.824219 611.875 481.742188 611.828125 C 481.527344 611.710938 481.089844 611.605469 480.742188 611.589844 C 480.582031 611.578125 480.273438 611.527344 480.070312 611.472656 C 479.859375 611.421875 479.65625 611.382812 479.617188 611.398438 C 479.574219 611.414062 479.460938 611.375 479.359375 611.320312 C 479.253906 611.265625 479.15625 611.25 479.132812 611.273438 C 479.074219 611.34375 478.621094 611.285156 478.007812 611.128906 C 477.742188 611.054688 477.378906 610.980469 477.222656 610.953125 C 477.054688 610.933594 476.855469 610.863281 476.785156 610.796875 C 476.703125 610.730469 476.605469 610.691406 476.558594 610.707031 C 476.523438 610.71875 476.09375 610.675781 475.609375 610.609375 C 474.636719 610.472656 474.550781 610.460938 473.964844 610.3125 C 473.738281 610.257812 473.515625 610.21875 473.46875 610.226562 C 473.414062 610.238281 473.152344 610.1875 472.886719 610.113281 C 472.613281 610.042969 472.355469 609.996094 472.304688 610.015625 C 472.25 610.035156 472.191406 610.011719 472.175781 609.96875 C 472.164062 609.929688 472.128906 609.917969 472.097656 609.953125 C 472.070312 609.988281 471.992188 609.980469 471.917969 609.941406 C 471.84375 609.898438 471.746094 609.875 471.695312 609.894531 C 471.648438 609.910156 471.523438 609.878906 471.417969 609.820312 C 471.316406 609.765625 471.171875 609.738281 471.097656 609.765625 C 471.023438 609.792969 470.941406 609.789062 470.90625 609.757812 C 470.871094 609.730469 470.667969 609.679688 470.46875 609.652344 C 470.257812 609.625 469.953125 609.539062 469.785156 609.460938 C 469.617188 609.386719 469.46875 609.347656 469.457031 609.382812 C 469.4375 609.417969 469.367188 609.382812 469.285156 609.320312 C 469.210938 609.246094 469.089844 609.210938 469.007812 609.242188 C 468.933594 609.265625 468.765625 609.207031 468.632812 609.121094 C 468.5 609.023438 468.367188 608.980469 468.34375 609.011719 C 468.316406 609.046875 468.210938 609.035156 468.105469 608.96875 C 468.003906 608.914062 467.882812 608.878906 467.832031 608.898438 C 467.777344 608.917969 467.679688 608.875 467.609375 608.808594 C 467.535156 608.742188 467.429688 608.703125 467.371094 608.722656 C 467.3125 608.746094 467.242188 608.71875 467.226562 608.667969 C 467.191406 608.570312 466.800781 608.503906 466.625 608.566406 C 466.5625 608.585938 466.503906 608.53125 466.476562 608.425781 C 466.40625 608.125 466.355469 608.078125 466.210938 608.125 C 466.136719 608.152344 465.785156 608.023438 465.433594 607.847656 C 463.777344 607.019531 463.425781 606.839844 463.394531 606.851562 C 463.34375 606.871094 462.105469 606.230469 461.988281 606.132812 C 461.9375 606.082031 461.851562 606.054688 461.804688 606.070312 C 461.71875 606.101562 460.710938 605.597656 460.21875 605.292969 C 460.070312 605.195312 459.824219 605.105469 459.65625 605.089844 C 459.492188 605.070312 459.324219 604.996094 459.277344 604.929688 C 459.238281 604.859375 459.15625 604.820312 459.097656 604.839844 C 459.042969 604.859375 458.808594 604.730469 458.574219 604.5625 C 458.339844 604.394531 458.082031 604.269531 457.992188 604.273438 C 457.902344 604.28125 457.726562 604.207031 457.605469 604.117188 C 457.488281 604.023438 457.300781 603.9375 457.195312 603.925781 C 457.085938 603.921875 456.886719 603.832031 456.757812 603.742188 C 456.617188 603.648438 456.460938 603.585938 456.410156 603.605469 C 456.355469 603.625 456.300781 603.609375 456.292969 603.578125 C 456.257812 603.484375 455.519531 603.082031 455.429688 603.113281 C 455.386719 603.128906 455.175781 603.007812 454.964844 602.855469 C 454.753906 602.695312 454.539062 602.585938 454.496094 602.601562 C 454.441406 602.621094 454.363281 602.589844 454.3125 602.539062 C 454.269531 602.488281 454.199219 602.453125 454.15625 602.46875 C 454.113281 602.484375 454.101562 602.523438 454.132812 602.542969 C 454.167969 602.574219 454.210938 602.792969 454.226562 603.027344 C 454.242188 603.273438 454.28125 603.476562 454.304688 603.492188 C 454.332031 603.5 454.328125 603.566406 454.296875 603.644531 C 454.269531 603.714844 454.28125 603.785156 454.300781 603.800781 C 454.332031 603.816406 454.371094 603.980469 454.394531 604.164062 C 454.414062 604.347656 454.523438 604.800781 454.632812 605.164062 C 454.785156 605.675781 454.816406 605.910156 454.757812 606.144531 C 454.703125 606.398438 454.71875 606.492188 454.839844 606.652344 C 454.9375 606.765625 455 606.945312 455.015625 607.105469 C 455.050781 607.621094 455.152344 608.101562 455.367188 608.84375 C 455.40625 609.011719 455.460938 609.285156 455.476562 609.453125 C 455.511719 609.816406 455.566406 610.097656 455.703125 610.683594 C 455.757812 610.917969 455.839844 611.246094 455.875 611.417969 C 455.917969 611.585938 456 611.949219 456.078125 612.222656 C 456.253906 612.894531 456.621094 614.628906 456.617188 614.785156 C 456.617188 614.855469 456.667969 615.101562 456.730469 615.332031 C 456.785156 615.5625 456.917969 616.175781 457.003906 616.695312 C 457.101562 617.210938 457.21875 617.8125 457.273438 618.027344 C 457.332031 618.242188 457.367188 618.460938 457.355469 618.523438 C 457.335938 618.589844 457.355469 618.648438 457.386719 618.664062 C 457.417969 618.683594 457.421875 618.761719 457.382812 618.847656 C 457.355469 618.933594 457.355469 619.367188 457.386719 619.8125 C 457.464844 620.835938 457.464844 620.695312 457.382812 621.375 C 457.347656 621.703125 457.285156 621.972656 457.246094 621.988281 C 457.210938 622 457.195312 622.054688 457.214844 622.113281 C 457.234375 622.167969 457.222656 622.273438 457.175781 622.335938 C 457.140625 622.398438 457.121094 622.5625 457.140625 622.683594 C 457.164062 622.898438 457.140625 623.527344 457.074219 623.898438 C 457.066406 623.984375 457.070312 624.097656 457.089844 624.152344 C 457.109375 624.210938 457.085938 624.402344 457.03125 624.589844 C 456.988281 624.769531 456.957031 625.070312 456.972656 625.257812 C 456.984375 625.4375 456.972656 625.734375 456.949219 625.910156 C 456.929688 626.089844 456.914062 626.289062 456.917969 626.351562 C 456.9375 626.480469 456.925781 626.515625 456.78125 626.941406 C 456.726562 627.09375 456.683594 627.335938 456.683594 627.476562 C 456.679688 627.609375 456.671875 627.804688 456.671875 627.898438 C 456.667969 627.988281 456.667969 628.082031 456.667969 628.105469 C 456.675781 628.128906 456.652344 628.277344 456.628906 628.445312 C 456.597656 628.605469 456.589844 628.917969 456.597656 629.132812 C 456.605469 629.34375 456.570312 629.558594 456.523438 629.609375 C 456.46875 629.652344 456.445312 629.75 456.472656 629.824219 C 456.5 629.898438 456.496094 630.109375 456.46875 630.300781 C 456.441406 630.484375 456.433594 630.820312 456.445312 631.050781 C 456.453125 631.28125 456.425781 631.617188 456.378906 631.792969 C 456.332031 631.964844 456.296875 632.320312 456.296875 632.570312 C 456.300781 632.820312 456.265625 633.097656 456.226562 633.179688 C 456.132812 633.363281 455.984375 634.472656 456.019531 634.652344 C 456.121094 635.082031 455.90625 635.546875 455.484375 635.804688 C 455.316406 635.910156 455.226562 635.917969 455.066406 635.839844 C 454.8125 635.71875 454.726562 635.492188 454.683594 634.886719 C 454.667969 634.644531 454.625 634.425781 454.589844 634.394531 C 454.554688 634.367188 454.539062 634.296875 454.558594 634.230469 C 454.578125 634.167969 454.558594 634 454.527344 633.851562 C 454.484375 633.707031 454.4375 633.425781 454.414062 633.222656 C 454.394531 633.019531 454.273438 632.523438 454.144531 632.109375 C 454.011719 631.695312 453.902344 631.285156 453.886719 631.195312 C 453.882812 631.105469 453.832031 630.839844 453.785156 630.605469 C 453.738281 630.375 453.664062 629.949219 453.625 629.664062 C 453.589844 629.375 453.480469 628.871094 453.390625 628.535156 C 453.222656 627.933594 453.140625 627.578125 453.09375 627.179688 C 453.082031 627.066406 453.050781 626.851562 453.015625 626.707031 C 452.953125 626.386719 452.917969 626.113281 452.941406 626.105469 C 452.949219 626.105469 452.933594 626.015625 452.90625 625.910156 C 452.878906 625.804688 452.816406 625.464844 452.765625 625.167969 C 452.707031 624.863281 452.617188 624.425781 452.554688 624.199219 C 452.363281 623.457031 452.164062 622.523438 452.183594 622.433594 C 452.199219 622.378906 452.15625 622.136719 452.09375 621.890625 C 452.042969 621.640625 451.921875 621.082031 451.847656 620.648438 C 451.664062 619.632812 451.589844 619.332031 451.421875 618.839844 C 451.351562 618.613281 451.265625 618.269531 451.238281 618.070312 C 451.210938 617.871094 451.160156 617.585938 451.136719 617.4375 C 451.101562 617.292969 451.054688 617.039062 451.027344 616.890625 C 450.886719 616.148438 450.847656 615.960938 450.734375 615.535156 C 450.664062 615.285156 450.5625 614.871094 450.5 614.617188 C 450.441406 614.359375 450.371094 614.078125 450.347656 613.984375 C 450.328125 613.882812 450.324219 613.777344 450.335938 613.738281 C 450.359375 613.707031 450.34375 613.59375 450.3125 613.503906 C 450.28125 613.40625 450.238281 613.121094 450.222656 612.859375 C 450.199219 612.601562 450.128906 612.183594 450.058594 611.933594 C 449.796875 610.984375 449.644531 610.320312 449.597656 609.96875 C 449.578125 609.773438 449.5 609.402344 449.4375 609.148438 C 449.375 608.894531 449.316406 608.632812 449.316406 608.566406 C 449.320312 608.496094 449.238281 608.042969 449.132812 607.546875 C 449.035156 607.054688 448.933594 606.566406 448.917969 606.453125 C 448.875 606.234375 448.78125 605.742188 448.714844 605.429688 C 448.691406 605.316406 448.679688 605.183594 448.6875 605.132812 C 448.707031 605.050781 448.585938 604.484375 448.378906 603.722656 C 447.878906 601.863281 447.683594 600.988281 447.597656 600.285156 C 447.507812 599.472656 447.394531 598.9375 447.1875 598.214844 C 447.117188 597.992188 447.054688 597.6875 447.042969 597.558594 C 447.03125 597.421875 446.988281 597.160156 446.945312 596.964844 C 446.90625 596.773438 446.863281 596.527344 446.847656 596.417969 C 446.8125 596.003906 446.660156 595.007812 446.574219 594.613281 C 446.519531 594.386719 446.503906 594.175781 446.527344 594.144531 C 446.554688 594.109375 446.558594 594.023438 446.535156 593.949219 C 446.507812 593.875 446.550781 593.726562 446.628906 593.625 C 446.773438 593.433594 446.78125 593.429688 447.054688 593.402344 Z M 447.054688 593.402344 " fill-opacity="1" fill-rule="nonzero"/></g></g></g><g clip-path="url(#92e7ecfe25)"><g clip-path="url(#e08af41f35)"><g clip-path="url(#e072008164)"><path fill="#ffffff" d="M 460.894531 609.035156 C 461.160156 609.011719 461.433594 609.03125 461.5 609.078125 C 461.5625 609.121094 461.648438 609.125 461.683594 609.078125 C 461.71875 609.042969 461.847656 609.070312 461.976562 609.152344 C 462.105469 609.242188 462.222656 609.292969 462.234375 609.273438 C 462.355469 609.121094 462.796875 609.410156 462.960938 609.761719 C 463.027344 609.898438 463.238281 610.132812 463.4375 610.289062 C 463.679688 610.480469 463.78125 610.609375 463.757812 610.6875 C 463.730469 610.753906 463.796875 610.847656 463.933594 610.957031 C 464.0625 611.054688 464.199219 611.234375 464.242188 611.359375 C 464.28125 611.480469 464.394531 611.632812 464.480469 611.695312 C 464.566406 611.746094 464.664062 611.855469 464.6875 611.929688 C 464.714844 612.003906 464.847656 612.167969 464.976562 612.296875 C 465.109375 612.425781 465.246094 612.597656 465.269531 612.671875 C 465.296875 612.746094 465.414062 612.960938 465.53125 613.15625 C 465.644531 613.339844 465.804688 613.609375 465.875 613.742188 C 465.949219 613.878906 466.15625 614.097656 466.328125 614.230469 C 466.507812 614.359375 466.675781 614.535156 466.707031 614.625 C 466.734375 614.707031 466.894531 614.875 467.054688 615.003906 C 467.222656 615.128906 467.390625 615.320312 467.4375 615.429688 C 467.484375 615.546875 467.652344 615.746094 467.820312 615.886719 C 468.050781 616.074219 468.144531 616.226562 468.222656 616.5 C 468.304688 616.785156 468.398438 616.910156 468.683594 617.148438 C 468.878906 617.304688 469.078125 617.5 469.125 617.578125 C 469.160156 617.65625 469.285156 617.871094 469.394531 618.066406 C 469.503906 618.269531 469.570312 618.464844 469.550781 618.523438 C 469.527344 618.578125 469.542969 618.640625 469.570312 618.65625 C 469.601562 618.671875 469.617188 618.742188 469.605469 618.804688 C 469.585938 618.867188 469.582031 618.953125 469.597656 618.996094 C 469.667969 619.222656 469.472656 620.074219 469.304688 620.265625 C 469.195312 620.386719 469.058594 620.59375 468.992188 620.734375 C 468.847656 621.015625 468.492188 621.363281 468.367188 621.339844 C 468.324219 621.332031 468.222656 621.398438 468.152344 621.492188 C 468 621.675781 467.210938 621.949219 466.9375 621.902344 C 466.839844 621.886719 466.621094 621.878906 466.449219 621.890625 C 466.28125 621.890625 466.128906 621.859375 466.117188 621.820312 C 466.105469 621.785156 465.949219 621.722656 465.78125 621.6875 C 465.421875 621.613281 464.90625 621.214844 464.8125 620.941406 C 464.777344 620.835938 464.667969 620.699219 464.570312 620.632812 C 464.472656 620.558594 464.386719 620.429688 464.375 620.332031 C 464.371094 620.226562 464.230469 620.058594 463.976562 619.871094 C 463.757812 619.703125 463.566406 619.488281 463.539062 619.390625 C 463.511719 619.28125 463.320312 619.066406 463.121094 618.902344 C 462.914062 618.738281 462.730469 618.542969 462.707031 618.476562 C 462.636719 618.269531 462.132812 617.875 462.007812 617.921875 C 461.894531 617.957031 461.742188 617.855469 461.691406 617.703125 C 461.679688 617.675781 461.738281 617.578125 461.828125 617.5 C 462.027344 617.304688 462 617.230469 461.566406 616.890625 C 461.351562 616.730469 461.207031 616.554688 461.214844 616.476562 C 461.21875 616.394531 461.078125 616.226562 460.859375 616.058594 C 460.664062 615.902344 460.519531 615.742188 460.527344 615.699219 C 460.535156 615.652344 460.429688 615.515625 460.300781 615.378906 C 460.164062 615.25 460.035156 615.09375 460.011719 615.027344 C 459.992188 614.96875 459.882812 614.796875 459.765625 614.660156 C 459.632812 614.492188 459.558594 614.324219 459.550781 614.160156 C 459.542969 613.988281 459.488281 613.882812 459.367188 613.792969 C 459.265625 613.71875 459.152344 613.582031 459.097656 613.492188 C 459.046875 613.402344 458.929688 613.175781 458.824219 612.996094 C 458.527344 612.480469 458.476562 612.023438 458.597656 611.117188 C 458.632812 610.863281 459.789062 609.359375 459.992188 609.296875 C 460.070312 609.28125 460.199219 609.21875 460.273438 609.167969 C 460.347656 609.117188 460.625 609.054688 460.894531 609.035156 Z M 460.894531 609.035156 " fill-opacity="1" fill-rule="nonzero"/></g></g></g><g clip-path="url(#b6b6d6f434)"><g clip-path="url(#219d3018e8)"><g clip-path="url(#532146b36e)"><path fill="#ffffff" d="M 475.386719 626.09375 C 475.40625 626.105469 475.542969 626.089844 475.699219 626.058594 C 476.039062 625.984375 476.515625 626.011719 476.691406 626.117188 C 476.769531 626.164062 476.867188 626.1875 476.929688 626.167969 C 476.980469 626.148438 477.3125 626.359375 477.671875 626.632812 C 479.269531 627.875 479.898438 628.386719 479.941406 628.507812 C 479.964844 628.582031 480.261719 628.863281 480.601562 629.136719 C 481.25 629.671875 481.398438 629.808594 481.511719 630.039062 C 481.554688 630.113281 481.875 630.414062 482.234375 630.703125 C 482.601562 630.992188 482.90625 631.296875 482.921875 631.382812 C 482.945312 631.476562 483.363281 631.863281 483.96875 632.335938 C 484.632812 632.859375 484.988281 633.183594 484.988281 633.285156 C 485.003906 633.371094 485.089844 633.507812 485.203125 633.59375 C 485.398438 633.742188 485.527344 634.074219 485.597656 634.605469 C 485.640625 634.992188 485.546875 635.742188 485.441406 635.835938 C 485.386719 635.878906 485.382812 635.957031 485.425781 636.007812 C 485.480469 636.074219 485.351562 636.300781 485.007812 636.753906 C 484.550781 637.363281 484.480469 637.421875 484.0625 637.582031 C 483.8125 637.675781 483.523438 637.742188 483.429688 637.726562 C 483.332031 637.710938 483.195312 637.722656 483.125 637.765625 C 483.058594 637.796875 482.992188 637.792969 482.980469 637.757812 C 482.964844 637.710938 482.890625 637.71875 482.816406 637.769531 C 482.742188 637.820312 482.667969 637.824219 482.652344 637.777344 C 482.640625 637.742188 482.589844 637.734375 482.535156 637.777344 C 482.484375 637.820312 482.386719 637.804688 482.3125 637.730469 C 482.238281 637.664062 482.140625 637.640625 482.085938 637.683594 C 481.992188 637.765625 481.796875 637.632812 480.457031 636.582031 C 479.925781 636.164062 479.601562 635.851562 479.597656 635.761719 C 479.589844 635.671875 479.300781 635.390625 478.863281 635.050781 C 478.476562 634.742188 478.121094 634.414062 478.082031 634.328125 C 478.035156 634.246094 477.738281 633.964844 477.417969 633.707031 C 477.09375 633.453125 476.722656 633.097656 476.59375 632.925781 C 476.46875 632.753906 475.910156 632.246094 475.359375 631.8125 C 474.808594 631.378906 474.273438 630.898438 474.171875 630.75 C 474.0625 630.601562 473.914062 630.40625 473.828125 630.308594 C 473.71875 630.179688 473.539062 629.71875 473.601562 629.695312 C 473.609375 629.695312 473.582031 629.570312 473.554688 629.421875 C 473.46875 628.976562 473.460938 628.910156 473.480469 628.804688 C 473.496094 628.75 473.472656 628.65625 473.421875 628.609375 C 473.378906 628.554688 473.394531 628.476562 473.445312 628.433594 C 473.503906 628.378906 473.527344 628.28125 473.496094 628.199219 C 473.464844 628.109375 473.507812 627.960938 473.589844 627.859375 C 473.667969 627.757812 473.71875 627.632812 473.699219 627.578125 C 473.679688 627.519531 473.855469 627.242188 474.082031 626.953125 C 474.429688 626.535156 474.589844 626.394531 474.921875 626.253906 C 475.15625 626.15625 475.363281 626.085938 475.386719 626.09375 Z M 475.386719 626.09375 " fill-opacity="1" fill-rule="nonzero"/></g></g></g><g clip-path="url(#55677adb9b)"><g clip-path="url(#5932e3d10b)"><g clip-path="url(#b31527ada1)"><path fill="#ffffff" d="M 493.054688 640.972656 C 493.144531 640.96875 493.394531 641.007812 493.613281 641.0625 C 493.832031 641.121094 494.050781 641.152344 494.105469 641.136719 C 494.15625 641.117188 494.347656 641.210938 494.515625 641.335938 C 494.6875 641.46875 494.976562 641.652344 495.164062 641.742188 C 495.351562 641.828125 495.527344 641.96875 495.550781 642.042969 C 495.613281 642.214844 497.167969 643.433594 497.335938 643.433594 C 497.488281 643.4375 498.324219 644.007812 498.761719 644.398438 C 498.941406 644.558594 499.175781 644.746094 499.273438 644.792969 C 499.378906 644.851562 499.722656 645.097656 500.039062 645.347656 C 500.359375 645.59375 500.667969 645.78125 500.726562 645.757812 C 500.777344 645.742188 501.054688 645.917969 501.355469 646.15625 C 501.648438 646.398438 501.980469 646.617188 502.101562 646.648438 C 502.292969 646.691406 502.707031 647.121094 502.894531 647.472656 C 502.933594 647.5625 503.035156 647.683594 503.109375 647.75 C 503.316406 647.945312 503.632812 649.09375 503.523438 649.257812 C 503.472656 649.324219 503.449219 649.433594 503.46875 649.484375 C 503.535156 649.679688 503.117188 650.472656 502.667969 651.019531 C 502.257812 651.523438 502.199219 651.566406 501.777344 651.695312 C 501.285156 651.84375 500.902344 651.890625 500.710938 651.824219 C 500.652344 651.800781 500.605469 651.808594 500.621094 651.847656 C 500.628906 651.878906 500.589844 651.882812 500.519531 651.847656 C 500.449219 651.816406 500.339844 651.8125 500.265625 651.835938 C 500.191406 651.863281 500.050781 651.820312 499.949219 651.738281 C 499.84375 651.65625 499.71875 651.609375 499.667969 651.628906 C 499.535156 651.675781 499.339844 651.542969 499.242188 651.339844 C 499.117188 651.070312 498.96875 650.953125 498.820312 651.003906 C 498.722656 651.039062 498.484375 650.910156 498.097656 650.605469 C 497.78125 650.363281 497.46875 650.164062 497.410156 650.160156 C 497.242188 650.160156 496.375 649.585938 496.054688 649.261719 C 495.910156 649.105469 495.726562 648.96875 495.660156 648.941406 C 495.585938 648.917969 495.160156 648.605469 494.707031 648.261719 C 494.253906 647.910156 493.84375 647.644531 493.800781 647.660156 C 493.6875 647.699219 492.460938 646.730469 492.308594 646.484375 C 492.238281 646.382812 491.890625 646.070312 491.523438 645.789062 C 490.96875 645.367188 490.832031 645.203125 490.660156 644.855469 C 490.542969 644.621094 490.453125 644.359375 490.457031 644.269531 C 490.449219 643.769531 490.59375 643.027344 490.722656 642.890625 C 490.808594 642.804688 490.851562 642.664062 490.824219 642.589844 C 490.765625 642.417969 491.265625 641.769531 491.460938 641.761719 C 491.535156 641.757812 491.691406 641.65625 491.796875 641.527344 C 491.996094 641.308594 492.667969 641.007812 493.054688 640.972656 Z M 493.054688 640.972656 " fill-opacity="1" fill-rule="nonzero"/></g></g></g><g clip-path="url(#e395253eec)"><g clip-path="url(#2a6654b83e)"><g clip-path="url(#00ffcfd132)"><path fill="#ffffff" d="M 512.433594 652.910156 C 512.609375 652.910156 512.828125 652.941406 512.925781 652.984375 C 513.023438 653.023438 513.144531 653.039062 513.203125 653.019531 C 513.265625 653 513.480469 653.117188 513.695312 653.273438 C 513.90625 653.433594 514.179688 653.574219 514.3125 653.59375 C 514.445312 653.613281 514.636719 653.691406 514.742188 653.769531 C 514.847656 653.859375 514.980469 653.90625 515.039062 653.882812 C 515.097656 653.863281 515.25 653.917969 515.390625 654.011719 C 515.523438 654.101562 515.667969 654.164062 515.714844 654.148438 C 515.765625 654.132812 515.96875 654.210938 516.175781 654.324219 C 516.371094 654.4375 516.574219 654.519531 516.613281 654.503906 C 516.65625 654.488281 516.800781 654.574219 516.941406 654.683594 C 517.078125 654.792969 517.21875 654.855469 517.246094 654.820312 C 517.285156 654.78125 517.378906 654.839844 517.476562 654.949219 C 517.5625 655.058594 517.679688 655.136719 517.734375 655.117188 C 517.777344 655.101562 517.921875 655.160156 518.054688 655.253906 C 518.1875 655.34375 518.347656 655.402344 518.425781 655.378906 C 518.5 655.351562 518.625 655.398438 518.714844 655.476562 C 518.804688 655.5625 518.957031 655.617188 519.054688 655.609375 C 519.152344 655.601562 519.320312 655.660156 519.425781 655.738281 C 519.527344 655.820312 519.660156 655.867188 519.71875 655.84375 C 519.773438 655.828125 519.917969 655.886719 520.023438 655.980469 C 520.144531 656.082031 520.253906 656.136719 520.28125 656.101562 C 520.3125 656.066406 520.460938 656.105469 520.613281 656.1875 C 520.765625 656.265625 520.976562 656.34375 521.074219 656.359375 C 521.179688 656.375 521.484375 656.558594 521.753906 656.757812 C 522.039062 656.976562 522.304688 657.117188 522.378906 657.089844 C 522.554688 657.03125 523.105469 657.457031 523.117188 657.660156 C 523.128906 657.746094 523.207031 657.871094 523.285156 657.933594 C 523.429688 658.035156 523.605469 658.441406 523.578125 658.625 C 523.570312 658.660156 523.605469 658.824219 523.640625 658.980469 C 523.683594 659.128906 523.679688 659.40625 523.625 659.609375 C 523.566406 659.804688 523.53125 659.992188 523.546875 660.027344 C 523.554688 660.058594 523.492188 660.179688 523.394531 660.289062 C 523.292969 660.40625 523.230469 660.582031 523.238281 660.679688 C 523.253906 660.898438 522.902344 661.351562 522.71875 661.339844 C 522.644531 661.34375 522.519531 661.417969 522.445312 661.519531 C 522.238281 661.785156 521.269531 662.1875 521.089844 662.082031 C 521.015625 662.039062 520.941406 662.03125 520.910156 662.066406 C 520.878906 662.101562 520.667969 662.085938 520.4375 662.023438 C 520.207031 661.960938 519.992188 661.917969 519.953125 661.933594 C 519.917969 661.945312 519.785156 661.875 519.652344 661.785156 C 519.519531 661.691406 519.359375 661.636719 519.285156 661.664062 C 519.21875 661.6875 519.0625 661.625 518.957031 661.527344 C 518.835938 661.429688 518.691406 661.371094 518.640625 661.386719 C 518.582031 661.410156 518.351562 661.296875 518.125 661.148438 C 517.902344 660.992188 517.675781 660.890625 517.625 660.90625 C 517.570312 660.925781 517.257812 660.808594 516.925781 660.648438 C 516.585938 660.484375 516.292969 660.386719 516.261719 660.421875 C 516.234375 660.457031 516.089844 660.398438 515.949219 660.285156 C 515.804688 660.179688 515.617188 660.101562 515.53125 660.113281 C 515.445312 660.128906 515.273438 660.0625 515.144531 659.957031 C 515.019531 659.859375 514.855469 659.773438 514.773438 659.785156 C 514.699219 659.785156 514.429688 659.65625 514.171875 659.484375 C 513.921875 659.316406 513.667969 659.195312 513.617188 659.210938 C 513.574219 659.226562 513.410156 659.167969 513.273438 659.082031 C 513.125 658.992188 512.972656 658.933594 512.925781 658.949219 C 512.882812 658.964844 512.730469 658.886719 512.589844 658.777344 C 512.445312 658.667969 512.269531 658.59375 512.203125 658.617188 C 512.128906 658.644531 511.953125 658.570312 511.796875 658.457031 C 511.652344 658.351562 511.507812 658.269531 511.484375 658.277344 C 511.335938 658.351562 511.253906 658.3125 510.875 658.027344 C 510.523438 657.765625 510.429688 657.640625 510.285156 657.273438 C 510.195312 657.039062 510.0625 656.800781 509.992188 656.757812 C 509.875 656.683594 509.820312 656.503906 509.675781 655.703125 C 509.628906 655.476562 509.683594 655.082031 509.769531 655.011719 C 509.820312 654.96875 509.84375 654.886719 509.820312 654.824219 C 509.777344 654.699219 510.015625 654.375 510.203125 654.3125 C 510.277344 654.285156 510.507812 654.039062 510.71875 653.765625 C 511.085938 653.304688 511.148438 653.25 511.613281 653.089844 C 511.890625 652.984375 512.257812 652.90625 512.433594 652.910156 Z M 512.433594 652.910156 " fill-opacity="1" fill-rule="nonzero"/></g></g></g><g clip-path="url(#0f7e845536)"><g clip-path="url(#bfbc9b5ec8)"><g clip-path="url(#3e289d64a5)"><path fill="#ffffff" d="M 659.613281 606.890625 C 659.652344 606.910156 659.796875 606.894531 659.945312 606.859375 C 660.226562 606.789062 660.484375 606.824219 661.082031 607.035156 C 661.480469 607.179688 662.429688 607.898438 662.511719 608.128906 C 662.546875 608.210938 662.636719 608.394531 662.710938 608.542969 C 662.96875 609.019531 662.957031 610.308594 662.6875 610.660156 C 662.613281 610.761719 662.550781 610.917969 662.554688 611 C 662.558594 611.199219 662.347656 611.480469 662.109375 611.585938 C 661.839844 611.703125 661.09375 612.671875 661.148438 612.835938 C 661.179688 612.917969 660.964844 613.257812 660.515625 613.839844 C 660.148438 614.316406 659.699219 614.898438 659.527344 615.125 C 659.355469 615.351562 658.800781 616.066406 658.300781 616.707031 C 657.804688 617.347656 657.347656 617.957031 657.292969 618.066406 C 657.242188 618.175781 657.160156 618.277344 657.125 618.292969 C 657.078125 618.308594 656.9375 618.457031 656.8125 618.617188 C 656.675781 618.78125 656.507812 618.921875 656.425781 618.925781 C 656.34375 618.929688 656.203125 619.027344 656.109375 619.144531 C 655.828125 619.484375 654.546875 619.835938 654.25 619.648438 C 654.1875 619.609375 654.089844 619.59375 654.039062 619.613281 C 653.992188 619.628906 653.875 619.578125 653.789062 619.492188 C 653.691406 619.40625 653.519531 619.324219 653.398438 619.308594 C 653.113281 619.273438 652.660156 618.929688 652.640625 618.730469 C 652.632812 618.640625 652.527344 618.5 652.414062 618.414062 C 651.953125 618.09375 651.71875 616.625 652.054688 616.148438 C 652.109375 616.070312 652.125 615.964844 652.082031 615.921875 C 651.980469 615.796875 652.601562 615.007812 652.832031 614.960938 C 653.058594 614.917969 653.441406 614.425781 653.453125 614.171875 C 653.460938 613.886719 655.074219 611.800781 655.402344 611.667969 C 655.636719 611.574219 655.773438 611.417969 655.734375 611.261719 C 655.730469 611.222656 655.71875 611.167969 655.714844 611.128906 C 655.710938 611.09375 656.027344 610.660156 656.421875 610.15625 C 656.835938 609.628906 657.132812 609.179688 657.128906 609.078125 C 657.109375 608.878906 657.546875 608.308594 657.777344 608.230469 C 657.867188 608.199219 658.132812 607.9375 658.367188 607.648438 C 658.742188 607.195312 658.828125 607.121094 659.050781 607.113281 C 659.195312 607.101562 659.335938 607.054688 659.382812 606.996094 C 659.484375 606.878906 659.535156 606.851562 659.613281 606.890625 Z M 659.613281 606.890625 " fill-opacity="1" fill-rule="nonzero"/></g></g></g><g clip-path="url(#5acf1d1613)"><g clip-path="url(#72dc7323bc)"><g clip-path="url(#9497e04e0a)"><path fill="#ffffff" d="M 533.460938 660.402344 C 533.496094 660.429688 533.640625 660.4375 533.777344 660.425781 C 533.917969 660.398438 534.242188 660.4375 534.496094 660.5 C 534.75 660.554688 535.039062 660.628906 535.140625 660.652344 C 535.238281 660.667969 535.378906 660.695312 535.449219 660.695312 C 535.515625 660.699219 535.644531 660.710938 535.722656 660.726562 C 535.8125 660.734375 535.925781 660.730469 535.984375 660.710938 C 536.046875 660.6875 536.128906 660.71875 536.175781 660.777344 C 536.230469 660.832031 536.277344 660.859375 536.292969 660.828125 C 536.316406 660.792969 536.523438 660.796875 536.78125 660.839844 C 537.027344 660.882812 537.3125 660.925781 537.410156 660.941406 C 537.503906 660.957031 537.699219 660.984375 537.84375 660.992188 C 537.980469 661 538.183594 661.039062 538.289062 661.078125 C 538.394531 661.117188 538.617188 661.15625 538.777344 661.160156 C 538.9375 661.167969 539.136719 661.21875 539.214844 661.273438 C 539.292969 661.328125 539.417969 661.351562 539.492188 661.328125 C 539.558594 661.304688 539.679688 661.3125 539.738281 661.339844 C 539.808594 661.375 539.90625 661.390625 539.960938 661.382812 C 540.136719 661.328125 540.601562 661.375 540.625 661.441406 C 540.636719 661.480469 540.691406 661.496094 540.753906 661.472656 C 540.8125 661.453125 541.007812 661.460938 541.195312 661.480469 C 541.378906 661.507812 541.71875 661.539062 541.953125 661.550781 C 542.1875 661.570312 542.445312 661.59375 542.515625 661.613281 C 542.710938 661.664062 543.0625 661.699219 543.207031 661.671875 C 543.269531 661.667969 543.378906 661.695312 543.445312 661.742188 C 543.511719 661.792969 543.597656 661.820312 543.644531 661.804688 C 543.84375 661.734375 545.164062 662.6875 545.222656 662.949219 C 545.238281 663.042969 545.328125 663.179688 545.414062 663.257812 C 545.523438 663.355469 545.550781 663.4375 545.523438 663.519531 C 545.492188 663.597656 545.511719 663.660156 545.570312 663.6875 C 545.679688 663.742188 545.824219 664.632812 545.726562 664.667969 C 545.699219 664.675781 545.6875 664.738281 545.707031 664.800781 C 545.792969 665.046875 545.5 665.738281 545.148438 666.117188 C 544.949219 666.339844 544.761719 666.496094 544.730469 666.480469 C 544.699219 666.464844 544.585938 666.5625 544.472656 666.695312 C 544.359375 666.832031 544.207031 666.945312 544.125 666.949219 C 544.046875 666.960938 543.933594 667.015625 543.878906 667.074219 C 543.824219 667.136719 543.730469 667.175781 543.664062 667.15625 C 543.609375 667.144531 543.464844 667.179688 543.355469 667.230469 C 543.246094 667.277344 543.105469 667.300781 543.042969 667.28125 C 542.976562 667.261719 542.8125 667.253906 542.671875 667.277344 C 542.535156 667.289062 542.359375 667.269531 542.289062 667.226562 C 542.222656 667.183594 542.105469 667.175781 542.027344 667.199219 C 541.945312 667.226562 541.875 667.210938 541.855469 667.160156 C 541.839844 667.113281 541.8125 667.101562 541.800781 667.136719 C 541.777344 667.171875 541.539062 667.160156 541.265625 667.113281 C 540.992188 667.066406 540.621094 667.003906 540.433594 666.976562 C 540.25 666.949219 540.0625 666.890625 540.023438 666.851562 C 539.992188 666.804688 539.898438 666.804688 539.824219 666.855469 C 539.757812 666.902344 539.683594 666.902344 539.667969 666.859375 C 539.652344 666.816406 539.609375 666.789062 539.566406 666.804688 C 539.402344 666.859375 538.382812 666.707031 538.296875 666.609375 C 538.253906 666.558594 538.191406 666.539062 538.15625 666.582031 C 538.125 666.617188 538.03125 666.636719 537.945312 666.625 C 537.859375 666.613281 537.632812 666.589844 537.445312 666.574219 C 537.257812 666.5625 537.078125 666.53125 537.050781 666.515625 C 537.019531 666.503906 536.875 666.476562 536.738281 666.457031 C 536.59375 666.449219 536.417969 666.429688 536.34375 666.410156 C 536.273438 666.394531 536.132812 666.375 536.039062 666.367188 C 535.945312 666.359375 535.777344 666.308594 535.671875 666.246094 C 535.5625 666.191406 535.414062 666.160156 535.335938 666.1875 C 535.257812 666.210938 535.1875 666.195312 535.171875 666.152344 C 535.160156 666.113281 535.128906 666.097656 535.097656 666.128906 C 535.074219 666.160156 534.894531 666.148438 534.699219 666.105469 C 534.5 666.066406 534.28125 666.035156 534.210938 666.027344 C 534.144531 666.023438 534.015625 666.011719 533.933594 665.996094 C 533.847656 665.984375 533.734375 665.992188 533.671875 666.011719 C 533.613281 666.03125 533.527344 666.003906 533.484375 665.945312 C 533.441406 665.894531 533.375 665.875 533.351562 665.90625 C 533.324219 665.941406 533.167969 665.902344 533.015625 665.824219 C 532.851562 665.738281 532.691406 665.683594 532.65625 665.699219 C 532.566406 665.730469 532.382812 665.609375 531.933594 665.222656 C 531.671875 665.003906 531.546875 664.832031 531.484375 664.628906 C 531.441406 664.460938 531.359375 664.296875 531.316406 664.261719 C 531.269531 664.21875 531.246094 664.128906 531.277344 664.050781 C 531.308594 663.957031 531.296875 663.917969 531.222656 663.902344 C 530.980469 663.84375 531.015625 662.558594 531.269531 662.226562 C 531.351562 662.125 531.394531 661.992188 531.375 661.933594 C 531.324219 661.792969 531.675781 661.355469 531.832031 661.355469 C 531.894531 661.359375 532.039062 661.253906 532.140625 661.117188 C 532.253906 660.984375 532.414062 660.839844 532.503906 660.789062 C 533.207031 660.4375 533.402344 660.355469 533.460938 660.402344 Z M 533.460938 660.402344 " fill-opacity="1" fill-rule="nonzero"/></g></g></g><g clip-path="url(#dc73b93d3b)"><g clip-path="url(#eb3c7a8590)"><g clip-path="url(#ca6523f222)"><path fill="#ffffff" d="M 645.179688 624.691406 C 645.257812 624.730469 645.414062 624.71875 645.539062 624.675781 C 645.65625 624.625 645.796875 624.59375 645.847656 624.601562 C 645.9375 624.621094 645.996094 624.617188 646.273438 624.578125 C 646.347656 624.570312 646.476562 624.609375 646.570312 624.667969 C 646.664062 624.71875 646.792969 624.75 646.851562 624.730469 C 647.023438 624.671875 648.238281 625.605469 648.332031 625.875 C 648.613281 626.660156 648.628906 626.78125 648.597656 627.199219 C 648.585938 627.378906 648.582031 627.554688 648.59375 627.59375 C 648.605469 627.628906 648.578125 627.816406 648.535156 628.003906 C 648.441406 628.421875 646.546875 630.878906 646.242188 630.984375 C 646.117188 631.027344 645.6875 631.519531 645.078125 632.289062 C 643.761719 633.96875 643.707031 634.03125 643.511719 634.097656 C 643.417969 634.132812 643.21875 634.308594 643.066406 634.492188 C 642.898438 634.703125 642.722656 634.847656 642.625 634.847656 C 642.519531 634.859375 642.324219 635.042969 642.066406 635.382812 C 641.847656 635.667969 641.515625 636.007812 641.3125 636.144531 C 640.894531 636.421875 640.09375 636.667969 639.90625 636.574219 C 639.863281 636.554688 639.757812 636.566406 639.664062 636.601562 C 639.574219 636.628906 639.457031 636.613281 639.414062 636.554688 C 639.371094 636.5 639.304688 636.480469 639.269531 636.527344 C 639.210938 636.597656 638.917969 636.566406 638.585938 636.429688 C 638.460938 636.382812 638.132812 636.15625 637.855469 635.933594 C 637.453125 635.613281 637.320312 635.445312 637.203125 635.160156 C 637.0625 634.792969 636.972656 634.03125 637.070312 634 C 637.097656 633.988281 637.082031 633.917969 637.03125 633.84375 C 636.980469 633.761719 636.980469 633.695312 637.023438 633.679688 C 637.078125 633.660156 637.089844 633.625 637.054688 633.59375 C 637.019531 633.566406 637.027344 633.445312 637.066406 633.324219 C 637.109375 633.199219 637.113281 633.066406 637.078125 633.019531 C 637.007812 632.933594 638.085938 631.46875 638.519531 631.070312 C 638.664062 630.929688 638.933594 630.75 639.132812 630.664062 C 639.4375 630.542969 639.617188 630.355469 640.484375 629.230469 C 641.484375 627.957031 641.84375 627.550781 641.953125 627.601562 C 641.988281 627.625 642.328125 627.238281 642.710938 626.757812 C 643.09375 626.273438 643.460938 625.863281 643.535156 625.839844 C 643.601562 625.816406 643.8125 625.609375 644 625.375 C 644.382812 624.902344 644.933594 624.585938 645.179688 624.691406 Z M 645.179688 624.691406 " fill-opacity="1" fill-rule="nonzero"/></g></g></g><g clip-path="url(#16752486b5)"><g clip-path="url(#c5b7750f04)"><g clip-path="url(#f905e56370)"><path fill="#ffffff" d="M 556.457031 662.746094 C 557.160156 662.703125 558.386719 662.710938 558.566406 662.75 C 558.628906 662.761719 558.667969 662.75 558.65625 662.71875 C 558.648438 662.695312 558.730469 662.691406 558.839844 662.722656 C 558.957031 662.746094 559.15625 662.761719 559.277344 662.753906 C 559.394531 662.738281 559.742188 662.75 560.035156 662.78125 C 560.328125 662.804688 560.820312 662.800781 561.132812 662.769531 C 563.210938 662.53125 565.5625 662.367188 565.632812 662.449219 C 565.65625 662.476562 565.742188 662.480469 565.808594 662.457031 C 565.882812 662.429688 566.027344 662.457031 566.128906 662.511719 C 566.230469 662.566406 566.367188 662.597656 566.433594 662.574219 C 566.621094 662.507812 567.960938 663.585938 568.089844 663.910156 C 568.140625 664.058594 568.230469 664.269531 568.269531 664.386719 C 568.367188 664.621094 568.390625 665.3125 568.320312 665.519531 C 568.296875 665.585938 568.277344 665.726562 568.285156 665.824219 C 568.285156 665.917969 568.25 666.035156 568.199219 666.078125 C 568.148438 666.121094 568.117188 666.207031 568.140625 666.265625 C 568.191406 666.421875 567.460938 667.316406 567.15625 667.464844 C 566.832031 667.621094 566.136719 667.828125 566.121094 667.773438 C 566.117188 667.769531 565.992188 667.785156 565.84375 667.820312 C 565.695312 667.847656 565.484375 667.886719 565.371094 667.902344 C 565.257812 667.90625 565.128906 667.925781 565.089844 667.933594 C 565.039062 667.933594 564.957031 667.929688 564.894531 667.917969 C 564.835938 667.894531 564.757812 667.914062 564.730469 667.949219 C 564.707031 667.980469 564.347656 668.03125 563.933594 668.058594 C 563.527344 668.082031 563.164062 668.140625 563.132812 668.175781 C 563.097656 668.214844 563.0625 668.210938 563.046875 668.171875 C 563.03125 668.128906 562.910156 668.128906 562.773438 668.175781 C 562.640625 668.222656 562.488281 668.242188 562.429688 668.21875 C 562.382812 668.195312 562.230469 668.191406 562.101562 668.210938 C 561.765625 668.269531 561.488281 668.273438 561.234375 668.234375 C 561.113281 668.21875 560.972656 668.21875 560.917969 668.234375 C 560.867188 668.253906 560.761719 668.257812 560.671875 668.246094 C 560.425781 668.207031 560.195312 668.210938 560.101562 668.261719 C 560.0625 668.285156 559.992188 668.273438 559.945312 668.242188 C 559.910156 668.210938 559.824219 668.199219 559.757812 668.222656 C 559.695312 668.242188 559.523438 668.246094 559.375 668.230469 C 559.21875 668.214844 558.726562 668.238281 558.273438 668.277344 C 557.484375 668.351562 557.316406 668.351562 556.703125 668.3125 C 556.554688 668.296875 556.382812 668.308594 556.316406 668.332031 C 556.25 668.355469 556.160156 668.335938 556.117188 668.285156 C 556.074219 668.230469 555.960938 668.195312 555.863281 668.203125 C 555.605469 668.226562 554.160156 667.128906 554.011719 666.804688 C 553.683594 666.078125 553.644531 665.859375 553.71875 665.214844 C 553.777344 664.726562 553.851562 664.511719 554.03125 664.289062 C 554.160156 664.128906 554.25 663.953125 554.230469 663.902344 C 554.214844 663.851562 554.246094 663.796875 554.296875 663.796875 C 554.351562 663.785156 554.484375 663.691406 554.585938 663.570312 C 554.6875 663.460938 554.800781 663.378906 554.832031 663.402344 C 554.871094 663.414062 554.953125 663.34375 555.039062 663.246094 C 555.261719 662.953125 555.734375 662.78125 556.457031 662.746094 Z M 556.457031 662.746094 " fill-opacity="1" fill-rule="nonzero"/></g></g></g><g clip-path="url(#351d6bb237)"><g clip-path="url(#05b5f64dd9)"><g clip-path="url(#f14ff55058)"><path fill="#ffffff" d="M 628.703125 639.707031 C 628.992188 639.675781 629.269531 639.679688 629.328125 639.707031 C 629.382812 639.746094 629.539062 639.785156 629.664062 639.789062 C 629.804688 639.800781 629.917969 639.84375 629.933594 639.890625 C 629.949219 639.933594 630.054688 639.972656 630.164062 639.976562 C 630.484375 639.984375 631.199219 640.625 631.386719 641.078125 C 631.476562 641.289062 631.5625 641.484375 631.585938 641.527344 C 631.605469 641.5625 631.640625 641.738281 631.675781 641.910156 C 631.710938 642.082031 631.75 642.285156 631.757812 642.359375 C 631.773438 642.4375 631.773438 642.527344 631.75 642.5625 C 631.730469 642.601562 631.738281 642.691406 631.761719 642.757812 C 631.785156 642.832031 631.777344 642.945312 631.734375 643.015625 C 631.691406 643.082031 631.667969 643.214844 631.683594 643.300781 C 631.71875 643.496094 630.691406 644.8125 630.453125 644.871094 C 630.367188 644.890625 630.246094 644.949219 630.183594 645.011719 C 630.128906 645.066406 630.015625 645.105469 629.941406 645.105469 C 629.867188 645.105469 629.734375 645.203125 629.644531 645.332031 C 629.542969 645.46875 629.410156 645.574219 629.3125 645.582031 C 629.226562 645.585938 629.058594 645.703125 628.945312 645.835938 C 628.832031 645.964844 628.707031 646.066406 628.675781 646.042969 C 628.644531 646.03125 628.527344 646.128906 628.421875 646.257812 C 628.308594 646.386719 628.160156 646.507812 628.085938 646.507812 C 628.003906 646.519531 627.859375 646.628906 627.757812 646.746094 C 627.660156 646.863281 627.492188 646.988281 627.394531 647.023438 C 627.296875 647.046875 627.054688 647.164062 626.867188 647.28125 C 626.671875 647.390625 626.492188 647.46875 626.453125 647.457031 C 626.421875 647.453125 626.324219 647.535156 626.242188 647.636719 C 626.160156 647.742188 626.035156 647.828125 625.945312 647.832031 C 625.863281 647.84375 625.699219 647.96875 625.582031 648.109375 C 625.457031 648.261719 625.292969 648.382812 625.210938 648.386719 C 625.128906 648.390625 624.996094 648.488281 624.914062 648.589844 C 624.835938 648.703125 624.703125 648.78125 624.628906 648.78125 C 624.5625 648.777344 624.449219 648.835938 624.382812 648.910156 C 624.175781 649.128906 623.53125 649.527344 623.1875 649.648438 C 623.011719 649.710938 622.851562 649.804688 622.835938 649.859375 C 622.832031 649.914062 622.730469 649.964844 622.625 649.976562 C 622.511719 649.980469 622.371094 650.054688 622.296875 650.132812 C 622.195312 650.242188 622.148438 650.257812 622.105469 650.199219 C 622.074219 650.160156 622.027344 650.148438 622.007812 650.183594 C 621.941406 650.253906 621.402344 650.292969 620.980469 650.246094 C 620.789062 650.230469 620.550781 650.144531 620.464844 650.058594 C 620.367188 649.976562 620.246094 649.917969 620.1875 649.9375 C 620.070312 649.980469 619.5 649.535156 619.527344 649.40625 C 619.539062 649.363281 619.496094 649.285156 619.433594 649.257812 C 619.222656 649.128906 618.652344 647.859375 618.707031 647.660156 C 618.71875 647.605469 618.722656 647.46875 618.710938 647.355469 C 618.703125 647.242188 618.738281 647.03125 618.785156 646.878906 C 618.910156 646.519531 619.953125 645.191406 620.238281 645.035156 C 620.359375 644.96875 620.558594 644.824219 620.671875 644.71875 C 620.785156 644.613281 620.914062 644.535156 620.960938 644.542969 C 621.003906 644.550781 621.109375 644.492188 621.183594 644.414062 C 621.355469 644.222656 621.855469 643.933594 622.242188 643.796875 C 622.40625 643.742188 622.597656 643.617188 622.675781 643.523438 C 622.75 643.429688 622.882812 643.335938 622.984375 643.316406 C 623.078125 643.292969 623.230469 643.179688 623.316406 643.066406 C 623.410156 642.953125 623.554688 642.859375 623.640625 642.847656 C 623.730469 642.839844 623.890625 642.726562 623.996094 642.597656 C 624.109375 642.46875 624.261719 642.355469 624.34375 642.351562 C 624.421875 642.34375 624.578125 642.230469 624.675781 642.113281 C 624.78125 641.984375 624.910156 641.890625 624.945312 641.902344 C 624.992188 641.910156 625.140625 641.808594 625.269531 641.683594 C 625.425781 641.527344 625.621094 641.417969 625.796875 641.375 C 625.984375 641.335938 626.144531 641.246094 626.222656 641.136719 C 626.296875 641.042969 626.445312 640.941406 626.546875 640.914062 C 626.652344 640.886719 626.835938 640.746094 626.960938 640.59375 C 627.074219 640.445312 627.203125 640.335938 627.234375 640.351562 C 627.265625 640.371094 627.367188 640.304688 627.464844 640.203125 C 627.558594 640.105469 627.714844 640 627.808594 639.96875 C 627.910156 639.941406 628.03125 639.882812 628.082031 639.839844 C 628.132812 639.796875 628.414062 639.742188 628.703125 639.707031 Z M 628.703125 639.707031 " fill-opacity="1" fill-rule="nonzero"/></g></g></g><g clip-path="url(#f313bf910b)"><g clip-path="url(#c04a9939d1)"><g clip-path="url(#41650967aa)"><path fill="#ffffff" d="M 578.152344 660.476562 C 578.191406 660.496094 578.605469 660.386719 579.070312 660.242188 C 579.535156 660.089844 579.917969 659.972656 579.921875 659.980469 C 579.925781 659.988281 580.183594 659.914062 580.492188 659.824219 C 580.804688 659.734375 581.269531 659.605469 581.523438 659.550781 C 581.78125 659.496094 582.089844 659.429688 582.21875 659.390625 C 582.429688 659.351562 583.539062 659.042969 584.347656 658.804688 C 584.519531 658.761719 584.707031 658.730469 584.773438 658.75 C 584.835938 658.761719 584.921875 658.722656 584.960938 658.648438 C 585.007812 658.585938 585.074219 658.535156 585.125 658.542969 C 585.171875 658.558594 585.609375 658.441406 586.082031 658.292969 C 586.566406 658.152344 587.003906 658.042969 587.046875 658.050781 C 587.101562 658.066406 587.300781 658.03125 587.480469 657.976562 C 587.660156 657.921875 587.84375 657.894531 587.882812 657.914062 C 587.921875 657.929688 588.011719 657.925781 588.078125 657.902344 C 588.152344 657.875 588.269531 657.894531 588.339844 657.9375 C 588.414062 657.976562 588.535156 657.992188 588.605469 657.972656 C 588.679688 657.945312 588.851562 658.015625 588.996094 658.136719 C 589.132812 658.246094 589.265625 658.316406 589.28125 658.285156 C 589.34375 658.140625 590.078125 658.953125 590.070312 659.171875 C 590.074219 659.226562 590.140625 659.328125 590.222656 659.394531 C 590.308594 659.453125 590.410156 659.59375 590.457031 659.710938 C 590.5 659.832031 590.570312 660.03125 590.613281 660.160156 C 590.71875 660.464844 590.683594 660.96875 590.554688 661.070312 C 590.503906 661.121094 590.484375 661.230469 590.511719 661.308594 C 590.539062 661.390625 590.496094 661.550781 590.402344 661.664062 C 590.308594 661.78125 590.269531 661.910156 590.3125 661.980469 C 590.390625 662.113281 589.921875 662.707031 589.703125 662.75 C 589.621094 662.761719 589.472656 662.863281 589.378906 662.96875 C 589.234375 663.113281 589.003906 663.214844 588.40625 663.40625 C 587.96875 663.550781 587.527344 663.671875 587.425781 663.679688 C 587.101562 663.71875 586.121094 663.992188 584.722656 664.445312 C 583.976562 664.675781 583.257812 664.890625 583.136719 664.917969 C 582.300781 665.066406 581.878906 665.164062 581.8125 665.21875 C 581.765625 665.25 581.703125 665.257812 581.65625 665.222656 C 581.605469 665.171875 581.546875 665.195312 581.460938 665.28125 C 581.394531 665.355469 581.3125 665.410156 581.273438 665.398438 C 581.238281 665.390625 580.914062 665.464844 580.5625 665.550781 C 579.53125 665.824219 578.941406 665.929688 578.910156 665.839844 C 578.902344 665.8125 578.792969 665.78125 578.652344 665.773438 C 578.085938 665.71875 577.890625 665.636719 577.300781 665.183594 C 576.609375 664.664062 576.441406 664.414062 576.230469 663.636719 C 576.152344 663.3125 576.191406 662.492188 576.296875 662.363281 C 576.324219 662.320312 576.355469 662.191406 576.359375 662.082031 C 576.371094 661.835938 577.007812 661 577.269531 660.882812 C 577.597656 660.753906 577.8125 660.644531 577.949219 660.539062 C 578.023438 660.488281 578.121094 660.457031 578.152344 660.476562 Z M 578.152344 660.476562 " fill-opacity="1" fill-rule="nonzero"/></g></g></g><g clip-path="url(#1336169220)"><g clip-path="url(#679c3672d8)"><g clip-path="url(#88828a92e8)"><path fill="#ffffff" d="M 608.683594 651.085938 C 608.75 651.109375 608.796875 651.101562 609.203125 650.976562 C 609.355469 650.933594 609.546875 650.933594 609.625 650.972656 C 609.707031 651.011719 609.785156 651.019531 609.792969 650.992188 C 609.808594 650.96875 609.953125 651 610.117188 651.070312 C 610.277344 651.140625 610.488281 651.21875 610.566406 651.230469 C 610.65625 651.25 610.917969 651.425781 611.160156 651.625 C 611.550781 651.949219 611.671875 652.140625 611.683594 652.429688 C 611.679688 652.46875 611.75 652.570312 611.832031 652.644531 C 611.988281 652.78125 612.167969 653.367188 612.128906 653.574219 C 612.105469 653.632812 612.132812 653.804688 612.167969 653.953125 C 612.207031 654.113281 612.191406 654.277344 612.117188 654.378906 C 612.054688 654.464844 612.019531 654.578125 612.035156 654.632812 C 612.113281 654.847656 611.347656 655.863281 611.015625 655.96875 C 610.90625 656.007812 610.792969 656.089844 610.753906 656.144531 C 610.714844 656.199219 610.613281 656.25 610.523438 656.25 C 610.425781 656.257812 610.320312 656.292969 610.28125 656.347656 C 610.238281 656.394531 610.105469 656.484375 609.988281 656.535156 C 609.859375 656.578125 609.535156 656.722656 609.261719 656.84375 C 608.324219 657.261719 606.730469 657.839844 606.671875 657.792969 C 606.636719 657.761719 606.371094 657.835938 606.085938 657.96875 C 605.355469 658.296875 602.316406 659.34375 601.714844 659.476562 C 601.433594 659.539062 601.132812 659.609375 601.039062 659.644531 C 600.949219 659.675781 600.863281 659.671875 600.851562 659.632812 C 600.839844 659.597656 600.78125 659.582031 600.722656 659.605469 C 600.671875 659.621094 600.5 659.582031 600.339844 659.511719 C 600.183594 659.441406 600.03125 659.386719 599.992188 659.390625 C 599.957031 659.394531 599.902344 659.40625 599.855469 659.414062 C 599.71875 659.445312 598.511719 658.445312 598.46875 658.269531 C 598.453125 658.179688 598.367188 658.046875 598.289062 657.964844 C 598.203125 657.894531 598.144531 657.789062 598.15625 657.726562 C 598.167969 657.671875 598.152344 657.519531 598.121094 657.386719 C 598.03125 657.035156 598.007812 656.769531 598.066406 656.699219 C 598.09375 656.664062 598.136719 656.5 598.160156 656.339844 C 598.183594 656.191406 598.234375 656.050781 598.269531 656.035156 C 598.3125 656.019531 598.324219 655.957031 598.304688 655.898438 C 598.28125 655.832031 598.457031 655.539062 598.679688 655.25 C 599.015625 654.820312 599.207031 654.652344 599.628906 654.421875 C 599.96875 654.230469 600.167969 654.152344 600.199219 654.199219 C 600.230469 654.238281 600.289062 654.21875 600.355469 654.144531 C 600.417969 654.082031 600.683594 653.984375 600.960938 653.910156 C 601.464844 653.785156 602.277344 653.503906 604.671875 652.617188 C 605.5 652.3125 606.082031 652.125 606.152344 652.152344 C 606.214844 652.171875 606.296875 652.160156 606.335938 652.113281 C 606.371094 652.070312 606.589844 651.953125 606.816406 651.863281 C 607.046875 651.777344 607.269531 651.65625 607.332031 651.609375 C 607.394531 651.554688 607.472656 651.542969 607.519531 651.578125 C 607.566406 651.621094 607.621094 651.609375 607.660156 651.546875 C 607.734375 651.429688 608.589844 651.039062 608.683594 651.085938 Z M 608.683594 651.085938 " fill-opacity="1" fill-rule="nonzero"/></g></g></g><g fill="#339966" fill-opacity="1"><g transform="translate(80.999999, 568.838371)"><g><path d="M 276.671875 0 L 206.640625 0 L 191.140625 -26.984375 L 87.25 -26.984375 L 71.75 0 L 1.71875 0 L 107.109375 -164.625 L 171.28125 -164.625 Z M 167.84375 -67.734375 L 139.25 -117.671875 L 110.546875 -67.734375 Z M 167.84375 -67.734375 "/></g></g></g><g fill="#ffffff" fill-opacity="1"><g transform="translate(359.432635, 568.838371)"><g><path d="M 136.5 0 L 18.375 0 L 18.375 -164.625 L 139.015625 -164.625 C 160.453125 -164.625 178.09375 -163.644531 191.9375 -161.6875 C 205.789062 -159.738281 216.46875 -156.675781 223.96875 -152.5 C 231.46875 -148.332031 236.554688 -143.035156 239.234375 -136.609375 C 241.921875 -130.179688 243.265625 -122.488281 243.265625 -113.53125 C 243.035156 -106.488281 241.101562 -100.648438 237.46875 -96.015625 C 233.832031 -91.390625 229.582031 -87.945312 224.71875 -85.6875 C 219.863281 -83.4375 215.597656 -82.3125 211.921875 -82.3125 C 215.515625 -82.3125 219.722656 -81.601562 224.546875 -80.1875 C 229.367188 -78.769531 234.054688 -76.722656 238.609375 -74.046875 C 243.160156 -71.367188 246.945312 -68.113281 249.96875 -64.28125 C 253 -60.457031 254.515625 -56.097656 254.515625 -51.203125 C 254.515625 -44.773438 253.765625 -38.878906 252.265625 -33.515625 C 250.773438 -28.160156 247.789062 -23.414062 243.3125 -19.28125 C 238.84375 -15.15625 232.242188 -11.65625 223.515625 -8.78125 C 214.785156 -5.914062 203.359375 -3.734375 189.234375 -2.234375 C 175.117188 -0.742188 157.539062 0 136.5 0 Z M 132.59375 -96.4375 C 142.695312 -96.4375 150.519531 -96.929688 156.0625 -97.921875 C 161.613281 -98.921875 165.460938 -100.429688 167.609375 -102.453125 C 169.753906 -104.484375 170.828125 -107.066406 170.828125 -110.203125 C 170.828125 -113.421875 169.753906 -116.039062 167.609375 -118.0625 C 165.460938 -120.09375 161.613281 -121.585938 156.0625 -122.546875 C 150.519531 -123.503906 142.695312 -123.984375 132.59375 -123.984375 L 87.484375 -123.984375 L 87.484375 -96.4375 Z M 132.59375 -40.640625 C 142.925781 -40.640625 151.304688 -40.90625 157.734375 -41.4375 C 164.160156 -41.976562 168.863281 -43.203125 171.84375 -45.109375 C 174.832031 -47.023438 176.328125 -50.128906 176.328125 -54.421875 C 176.328125 -58.703125 174.832031 -61.816406 171.84375 -63.765625 C 168.863281 -65.722656 164.160156 -66.945312 157.734375 -67.4375 C 151.304688 -67.9375 142.925781 -68.1875 132.59375 -68.1875 L 87.484375 -68.1875 L 87.484375 -40.640625 Z M 132.59375 -40.640625 "/></g></g></g><g fill="#339966" fill-opacity="1"><g transform="translate(623.123909, 568.838371)"><g><path d="M 87.484375 0 L 18.375 0 L 18.375 -164.734375 L 87.484375 -164.734375 Z M 87.484375 0 "/></g></g></g><g clip-path="url(#73266e96fc)"><path fill="#ffffff" d="M 195.519531 583.574219 L 235.34375 608.046875 C 237.925781 609.632812 238.734375 613.011719 237.140625 615.59375 C 235.554688 618.175781 232.175781 618.984375 229.597656 617.394531 L 203.507812 601.359375 C 216.503906 641.984375 257.789062 672.390625 300.480469 672.445312 L 300.597656 672.445312 C 343.976562 672.445312 385.953125 641.117188 398.28125 599.527344 C 399.140625 596.625 402.195312 594.96875 405.097656 595.824219 C 408 596.6875 409.664062 599.734375 408.800781 602.644531 C 402.152344 625.074219 387.527344 645.605469 367.625 660.441406 C 347.75 675.261719 323.949219 683.417969 300.597656 683.417969 L 300.472656 683.417969 C 277.074219 683.390625 253.25 675.171875 233.378906 660.277344 C 214.941406 646.460938 201.0625 627.746094 193.890625 607.1875 L 180.402344 629.140625 C 178.816406 631.722656 175.4375 632.53125 172.859375 630.941406 C 170.273438 629.355469 169.46875 625.976562 171.058594 623.390625 L 195.53125 583.570312 Z M 195.519531 583.574219 " fill-opacity="1" fill-rule="nonzero"/></g><g clip-path="url(#386eb3be77)"><path fill="#66cc99" d="M 270.042969 649.902344 L 330.167969 649.902344 C 333.414062 649.902344 336.0625 652.542969 336.0625 655.792969 L 336.0625 686.910156 C 336.0625 690.160156 333.414062 692.800781 330.167969 692.800781 L 270.042969 692.800781 C 266.796875 692.800781 264.15625 690.160156 264.15625 686.910156 L 264.15625 655.792969 C 264.15625 652.542969 266.796875 649.902344 270.042969 649.902344 Z M 270.042969 649.902344 " fill-opacity="1" fill-rule="evenodd"/></g><path fill="#339966" d="M 270.042969 653.980469 L 330.167969 653.980469 C 331.167969 653.980469 331.984375 654.796875 331.984375 655.792969 L 331.984375 686.910156 C 331.984375 687.90625 331.167969 688.722656 330.167969 688.722656 L 270.042969 688.722656 C 269.046875 688.722656 268.230469 687.90625 268.230469 686.910156 L 268.230469 655.792969 C 268.230469 654.796875 269.046875 653.980469 270.042969 653.980469 Z M 270.042969 653.980469 " fill-opacity="1" fill-rule="evenodd"/><path fill="#339966" d="M 323.070312 673.859375 C 324.449219 673.859375 325.578125 672.734375 325.578125 671.351562 C 325.578125 669.96875 324.449219 668.84375 323.070312 668.84375 C 321.6875 668.84375 320.558594 669.96875 320.558594 671.351562 C 320.558594 672.734375 321.6875 673.859375 323.070312 673.859375 Z M 323.070312 673.859375 " fill-opacity="1" fill-rule="evenodd"/><path fill="#339966" d="M 270.042969 653.980469 L 277.996094 653.980469 C 278.199219 654.671875 278.304688 655.398438 278.304688 656.148438 C 278.304688 660.496094 274.746094 664.054688 270.402344 664.054688 C 269.648438 664.054688 268.917969 663.945312 268.230469 663.746094 L 268.230469 655.792969 C 268.230469 654.796875 269.046875 653.980469 270.042969 653.980469 Z M 270.042969 653.980469 " fill-opacity="1" fill-rule="evenodd"/><path fill="#339966" d="M 330.167969 653.980469 L 322.214844 653.980469 C 322.019531 654.671875 321.914062 655.398438 321.914062 656.148438 C 321.914062 660.496094 325.46875 664.054688 329.808594 664.054688 C 330.5625 664.054688 331.292969 663.945312 331.984375 663.746094 L 331.984375 655.792969 C 331.984375 654.796875 331.167969 653.980469 330.167969 653.980469 Z M 330.167969 653.980469 " fill-opacity="1" fill-rule="evenodd"/><path fill="#339966" d="M 270.042969 688.722656 L 277.996094 688.722656 C 278.199219 688.035156 278.304688 687.304688 278.304688 686.554688 C 278.304688 682.207031 274.746094 678.648438 270.402344 678.648438 C 269.648438 678.648438 268.917969 678.757812 268.230469 678.957031 L 268.230469 686.910156 C 268.230469 687.90625 269.046875 688.722656 270.042969 688.722656 Z M 270.042969 688.722656 " fill-opacity="1" fill-rule="evenodd"/><path fill="#339966" d="M 330.167969 688.722656 L 322.214844 688.722656 C 322.019531 688.035156 321.914062 687.304688 321.914062 686.554688 C 321.914062 682.207031 325.46875 678.648438 329.808594 678.648438 C 330.5625 678.648438 331.292969 678.757812 331.984375 678.957031 L 331.984375 686.910156 C 331.984375 687.90625 331.167969 688.722656 330.167969 688.722656 Z M 330.167969 688.722656 " fill-opacity="1" fill-rule="evenodd"/><path fill="#66cc99" d="M 300.109375 658.40625 C 307.257812 658.40625 313.054688 664.203125 313.054688 671.351562 C 313.054688 678.5 307.257812 684.296875 300.109375 684.296875 C 292.957031 684.296875 287.160156 678.5 287.160156 671.351562 C 287.160156 664.203125 292.957031 658.40625 300.109375 658.40625 Z M 300.109375 658.40625 " fill-opacity="1" fill-rule="evenodd"/><path fill="#339966" d="M 277.148438 673.859375 C 278.523438 673.859375 279.65625 672.734375 279.65625 671.351562 C 279.65625 669.96875 278.523438 668.84375 277.148438 668.84375 C 275.761719 668.84375 274.636719 669.96875 274.636719 671.351562 C 274.636719 672.734375 275.761719 673.859375 277.148438 673.859375 Z M 277.148438 673.859375 " fill-opacity="1" fill-rule="evenodd"/><path fill="#339966" d="M 306.53125 677.179688 C 306.53125 679.394531 304.726562 681.195312 302.511719 681.195312 C 300.296875 681.195312 298.492188 679.394531 298.492188 677.179688 L 298.492188 671.160156 L 297.113281 671.160156 C 296.558594 671.160156 296.105469 670.707031 296.105469 670.148438 C 296.105469 669.589844 296.558594 669.136719 297.113281 669.136719 L 298.492188 669.136719 L 298.492188 664.921875 C 298.492188 664.152344 297.871094 663.53125 297.101562 663.53125 C 296.332031 663.53125 295.703125 664.152344 295.703125 664.921875 C 295.703125 665.480469 295.25 665.933594 294.691406 665.933594 C 294.132812 665.933594 293.679688 665.480469 293.679688 664.921875 C 293.679688 663.039062 295.214844 661.507812 297.101562 661.507812 C 298.984375 661.507812 300.515625 663.039062 300.515625 664.921875 L 300.515625 669.136719 L 303.785156 669.136719 C 304.34375 669.136719 304.796875 669.589844 304.796875 670.148438 C 304.796875 670.707031 304.34375 671.160156 303.785156 671.160156 L 300.515625 671.160156 L 300.515625 677.179688 C 300.515625 678.28125 301.410156 679.171875 302.511719 679.171875 C 303.613281 679.171875 304.507812 678.28125 304.507812 677.179688 C 304.507812 676.417969 304.058594 675.707031 303.363281 675.375 C 302.859375 675.132812 302.648438 674.527344 302.886719 674.023438 C 303.128906 673.523438 303.734375 673.308594 304.238281 673.550781 C 305.628906 674.21875 306.53125 675.644531 306.53125 677.179688 Z M 306.53125 677.179688 " fill-opacity="1" fill-rule="nonzero"/><g clip-path="url(#b2e1b5aa01)"><path fill="#66cc99" d="M 283.023438 661.972656 L 343.144531 661.972656 C 346.394531 661.972656 349.039062 664.613281 349.039062 667.863281 L 349.039062 698.976562 C 349.039062 702.226562 346.394531 704.867188 343.144531 704.867188 L 283.023438 704.867188 C 279.773438 704.867188 277.132812 702.226562 277.132812 698.976562 L 277.132812 667.863281 C 277.132812 664.613281 279.773438 661.972656 283.023438 661.972656 Z M 283.023438 661.972656 " fill-opacity="1" fill-rule="evenodd"/></g><path fill="#339966" d="M 283.023438 666.050781 L 343.144531 666.050781 C 344.148438 666.050781 344.964844 666.863281 344.964844 667.863281 L 344.964844 698.976562 C 344.964844 699.976562 344.148438 700.792969 343.144531 700.792969 L 283.023438 700.792969 C 282.027344 700.792969 281.210938 699.976562 281.210938 698.976562 L 281.210938 667.863281 C 281.210938 666.863281 282.027344 666.050781 283.023438 666.050781 Z M 283.023438 666.050781 " fill-opacity="1" fill-rule="evenodd"/><path fill="#339966" d="M 336.046875 685.929688 C 337.429688 685.929688 338.558594 684.800781 338.558594 683.417969 C 338.558594 682.035156 337.429688 680.910156 336.046875 680.910156 C 334.664062 680.910156 333.539062 682.035156 333.539062 683.417969 C 333.539062 684.800781 334.664062 685.929688 336.046875 685.929688 Z M 336.046875 685.929688 " fill-opacity="1" fill-rule="evenodd"/><path fill="#339966" d="M 283.023438 666.050781 L 290.976562 666.050781 C 291.175781 666.738281 291.28125 667.46875 291.28125 668.21875 C 291.28125 672.5625 287.726562 676.121094 283.378906 676.121094 C 282.625 676.121094 281.898438 676.015625 281.210938 675.8125 L 281.210938 667.863281 C 281.210938 666.863281 282.027344 666.050781 283.023438 666.050781 Z M 283.023438 666.050781 " fill-opacity="1" fill-rule="evenodd"/><path fill="#339966" d="M 343.144531 666.050781 L 335.195312 666.050781 C 334.996094 666.738281 334.890625 667.46875 334.890625 668.21875 C 334.890625 672.5625 338.449219 676.121094 342.789062 676.121094 C 343.542969 676.121094 344.273438 676.015625 344.964844 675.8125 L 344.964844 667.863281 C 344.964844 666.863281 344.148438 666.050781 343.144531 666.050781 Z M 343.144531 666.050781 " fill-opacity="1" fill-rule="evenodd"/><path fill="#339966" d="M 283.023438 700.789062 L 290.976562 700.789062 C 291.175781 700.101562 291.28125 699.375 291.28125 698.621094 C 291.28125 694.273438 287.726562 690.71875 283.378906 690.71875 C 282.625 690.71875 281.898438 690.824219 281.210938 691.023438 L 281.210938 698.976562 C 281.210938 699.976562 282.027344 700.789062 283.023438 700.789062 Z M 283.023438 700.789062 " fill-opacity="1" fill-rule="evenodd"/><path fill="#339966" d="M 343.144531 700.789062 L 335.195312 700.789062 C 334.996094 700.101562 334.890625 699.375 334.890625 698.621094 C 334.890625 694.273438 338.449219 690.71875 342.789062 690.71875 C 343.542969 690.71875 344.273438 690.824219 344.964844 691.023438 L 344.964844 698.976562 C 344.964844 699.976562 344.148438 700.789062 343.144531 700.789062 Z M 343.144531 700.789062 " fill-opacity="1" fill-rule="evenodd"/><path fill="#66cc99" d="M 313.085938 670.472656 C 320.238281 670.472656 326.035156 676.269531 326.035156 683.417969 C 326.035156 690.570312 320.238281 696.367188 313.085938 696.367188 C 305.9375 696.367188 300.140625 690.570312 300.140625 683.417969 C 300.140625 676.269531 305.9375 670.472656 313.085938 670.472656 Z M 313.085938 670.472656 " fill-opacity="1" fill-rule="evenodd"/><path fill="#339966" d="M 290.125 685.929688 C 291.503906 685.929688 292.636719 684.800781 292.636719 683.417969 C 292.636719 682.035156 291.503906 680.910156 290.125 680.910156 C 288.742188 680.910156 287.617188 682.035156 287.617188 683.417969 C 287.617188 684.800781 288.742188 685.929688 290.125 685.929688 Z M 290.125 685.929688 " fill-opacity="1" fill-rule="evenodd"/><path fill="#339966" d="M 319.511719 689.25 C 319.511719 691.460938 317.707031 693.261719 315.492188 693.261719 C 313.277344 693.261719 311.472656 691.460938 311.472656 689.25 L 311.472656 683.226562 L 310.09375 683.226562 C 309.535156 683.226562 309.082031 682.773438 309.082031 682.214844 C 309.082031 681.660156 309.535156 681.207031 310.09375 681.207031 L 311.472656 681.207031 L 311.472656 676.988281 C 311.472656 676.222656 310.847656 675.597656 310.078125 675.597656 C 309.308594 675.597656 308.683594 676.222656 308.683594 676.988281 C 308.683594 677.546875 308.230469 678 307.671875 678 C 307.113281 678 306.660156 677.546875 306.660156 676.988281 C 306.660156 675.105469 308.195312 673.574219 310.078125 673.574219 C 311.964844 673.574219 313.496094 675.105469 313.496094 676.988281 L 313.496094 681.207031 L 316.765625 681.207031 C 317.324219 681.207031 317.777344 681.660156 317.777344 682.214844 C 317.777344 682.773438 317.324219 683.226562 316.765625 683.226562 L 313.496094 683.226562 L 313.496094 689.25 C 313.496094 690.347656 314.390625 691.242188 315.492188 691.242188 C 316.59375 691.242188 317.488281 690.347656 317.488281 689.25 C 317.488281 688.484375 317.039062 687.773438 316.339844 687.441406 C 315.839844 687.199219 315.628906 686.597656 315.867188 686.09375 C 316.109375 685.589844 316.714844 685.375 317.214844 685.617188 C 318.609375 686.285156 319.511719 687.710938 319.511719 689.25 Z M 319.511719 689.25 " fill-opacity="1" fill-rule="nonzero"/></svg>